<?xml version="1.0" encoding="UTF-8" standalone="no"?>
<!DOCTYPE svg PUBLIC "-//W3C//DTD SVG 1.1//EN" "http://www.w3.org/Graphics/SVG/1.1/DTD/svg11.dtd">
<svg xmlns="http://www.w3.org/2000/svg" version="1.1" viewBox="0.00 0.00 748.00 205.00">
<path fill="#fe5eb2" d="
  M 389.11 86.76
  Q 385.05 96.39 376.71 103.08
  Q 376.20 103.49 376.17 104.15
  C 376.04 107.20 374.56 111.14 375.42 113.89
  C 376.37 116.92 378.74 117.57 381.54 118.64
  Q 393.12 123.04 404.17 127.12
  Q 407.40 128.31 408.89 129.52
  C 411.70 131.79 413.53 135.14 414.97 138.49
  Q 415.87 140.59 415.82 143.06
  Q 415.68 150.07 415.78 156.68
  A 0.31 0.31 0.0 0 1 415.47 157.00
  L 314.71 157.00
  A 0.49 0.49 0.0 0 1 314.22 156.50
  Q 314.32 149.13 314.19 142.14
  C 314.10 136.99 317.79 132.57 322.22 130.43
  Q 335.11 124.21 348.54 118.03
  Q 349.74 117.47 351.02 117.11
  C 353.51 116.40 355.12 114.02 354.84 111.49
  Q 354.47 108.10 353.70 104.02
  Q 353.59 103.47 353.16 103.12
  Q 344.50 96.04 340.65 86.91
  Q 340.42 86.37 339.88 86.17
  C 336.51 84.90 332.90 82.59 332.40 78.78
  C 331.74 73.77 334.42 70.64 338.70 68.67
  Q 339.36 68.37 339.51 67.66
  Q 341.44 58.65 346.08 49.56
  Q 347.20 47.37 349.05 46.32
  Q 355.50 42.66 361.71 40.22
  Q 362.43 39.94 363.08 39.51
  Q 363.49 39.24 363.69 38.80
  C 366.58 32.46 373.00 38.58 374.08 42.32
  Q 374.58 44.06 375.77 45.53
  Q 379.00 49.55 382.39 53.20
  C 383.80 54.72 386.12 55.65 387.14 57.33
  C 388.68 59.86 391.16 64.58 390.72 67.61
  Q 390.61 68.30 391.23 68.64
  C 393.71 70.02 395.84 71.15 396.95 73.87
  C 399.44 79.97 395.53 84.71 389.78 86.18
  A 0.99 0.98 -85.7 0 0 389.11 86.76
  Z
  M 386.54 80.30
  Q 386.87 75.78 386.84 69.42
  Q 386.83 66.02 385.90 63.54
  Q 384.65 60.19 382.40 58.33
  C 378.74 55.29 375.63 51.50 372.30 48.08
  C 370.11 45.82 370.51 42.47 367.86 40.70
  Q 367.45 40.43 367.20 40.85
  C 365.41 43.76 358.99 46.05 355.67 47.43
  C 353.38 48.38 350.04 49.96 348.94 52.34
  Q 345.06 60.76 343.57 67.89
  C 342.98 70.78 343.25 73.94 343.18 76.89
  C 342.90 88.79 352.54 98.23 362.12 104.14
  Q 364.63 105.68 366.99 104.40
  C 375.29 99.89 385.81 90.25 386.54 80.30
  Z
  M 393.29 75.03
  A 0.34 0.34 0.0 0 0 393.20 74.85
  L 391.29 72.90
  A 0.34 0.34 0.0 0 0 390.71 73.14
  L 390.59 80.94
  A 0.34 0.34 0.0 0 0 391.18 81.17
  L 393.74 78.41
  A 0.34 0.34 0.0 0 0 393.83 78.12
  L 393.29 75.03
  Z
  M 339.03 73.41
  A 0.32 0.32 0.0 0 0 338.48 73.19
  L 336.88 74.80
  A 0.32 0.32 0.0 0 0 336.80 74.94
  L 336.02 77.87
  A 0.32 0.32 0.0 0 0 336.08 78.16
  L 338.51 81.12
  A 0.32 0.32 0.0 0 0 339.07 80.91
  L 339.03 73.41
  Z
  M 370.42 107.31
  Q 365.31 111.45 358.92 107.10
  Q 358.28 106.66 358.35 107.43
  C 358.48 108.81 358.85 110.07 358.82 111.48
  C 358.73 115.12 356.89 118.62 353.45 120.16
  Q 333.50 129.05 323.55 134.47
  C 320.31 136.24 318.02 140.18 318.24 144.09
  Q 318.48 148.28 318.28 152.42
  Q 318.25 152.99 318.81 152.99
  L 411.19 152.99
  Q 411.78 152.99 411.73 152.40
  C 411.37 148.09 412.54 142.33 410.55 138.48
  C 409.09 135.63 407.34 132.94 404.24 131.74
  Q 391.45 126.77 379.61 122.56
  Q 374.98 120.90 373.34 118.98
  Q 369.69 114.68 371.51 108.02
  Q 372.06 105.99 370.42 107.31
  Z"
/>
<rect fill="#fe5eb2" x="182.59" y="147.74" width="119.70" height="7.82" rx="0.26"/>
<path fill="#fe5eb2" d="
  M 547.13 155.58
  L 428.03 155.55
  A 0.32 0.32 0.0 0 1 427.71 155.23
  L 427.69 148.06
  A 0.32 0.32 0.0 0 1 428.01 147.74
  L 547.12 147.74
  A 0.32 0.32 0.0 0 1 547.44 148.06
  L 547.45 155.26
  A 0.32 0.32 0.0 0 1 547.13 155.58
  Z"
/>
<rect fill="#fe5eb2" x="68.50" y="177.81" width="593.02" height="7.92" rx="3.94"/>
</svg>
