<?xml version="1.0" encoding="UTF-8" standalone="no"?>
<!DOCTYPE svg PUBLIC "-//W3C//DTD SVG 1.1//EN" "http://www.w3.org/Graphics/SVG/1.1/DTD/svg11.dtd">
<svg xmlns="http://www.w3.org/2000/svg" version="1.1" viewBox="0.00 0.00 512.00 512.00">
<path fill="#000000" d="
  M 81.04 194.54
  L 81.04 120.79
  Q 81.04 120.21 80.46 120.21
  Q 67.22 120.22 54.99 120.22
  Q 48.81 120.23 45.32 115.80
  C 40.68 109.89 43.16 100.44 50.47 98.10
  Q 52.92 97.31 56.14 97.35
  Q 69.17 97.51 80.90 97.37
  Q 81.22 97.37 81.22 97.05
  Q 81.14 84.14 81.22 73.35
  Q 81.39 49.01 97.86 32.49
  Q 110.81 19.50 128.31 16.46
  Q 134.27 15.42 147.26 15.44
  Q 277.55 15.58 406.22 15.51
  Q 432.16 15.49 448.97 32.53
  Q 461.56 45.31 464.53 62.80
  Q 465.52 68.66 465.51 78.72
  Q 465.37 246.10 465.44 436.86
  Q 465.45 461.98 448.59 478.84
  Q 435.98 491.46 418.69 494.54
  Q 412.84 495.59 400.23 495.58
  Q 270.23 495.51 138.90 495.51
  C 106.33 495.50 81.26 470.19 81.06 437.63
  Q 80.99 426.01 81.07 414.36
  A 0.62 0.62 0.0 0 0 80.45 413.73
  Q 67.37 413.76 54.82 413.73
  C 48.37 413.71 43.08 409.09 42.96 402.52
  C 42.84 396.00 47.95 390.93 54.36 390.90
  Q 67.50 390.82 80.66 390.87
  A 0.38 0.38 0.0 0 0 81.04 390.49
  L 81.04 316.24
  A 0.34 0.34 0.0 0 0 80.70 315.90
  Q 69.11 315.77 56.64 315.93
  Q 52.12 315.99 49.35 314.73
  C 43.21 311.92 41.15 304.07 44.74 298.33
  C 47.58 293.78 52.06 292.86 57.30 292.93
  Q 69.56 293.09 80.51 292.98
  Q 81.04 292.98 81.04 292.44
  L 81.04 218.53
  A 0.49 0.49 0.0 0 0 80.55 218.04
  Q 68.49 218.04 55.08 218.06
  C 38.93 218.09 39.20 195.09 54.75 195.19
  Q 67.98 195.27 80.39 195.20
  Q 81.04 195.19 81.04 194.54
  Z
  M 130.97 195.24
  C 137.35 195.26 142.20 200.63 142.11 206.71
  C 142.01 214.30 136.15 218.20 128.88 218.11
  Q 116.29 217.97 104.65 218.07
  Q 104.02 218.08 104.02 218.71
  L 104.02 292.30
  Q 104.02 293.00 104.72 293.00
  Q 116.34 293.00 129.94 292.99
  Q 136.51 292.99 139.95 297.72
  C 144.16 303.52 142.14 311.62 135.71 314.72
  Q 133.04 316.01 127.90 315.93
  Q 116.05 315.75 104.33 315.89
  A 0.32 0.32 0.0 0 0 104.02 316.21
  L 104.02 390.23
  Q 104.02 390.89 104.68 390.89
  Q 116.66 390.83 130.21 390.85
  Q 136.32 390.86 139.71 395.26
  C 144.37 401.31 142.09 410.21 134.86 412.86
  Q 132.27 413.81 128.54 413.78
  Q 116.17 413.70 104.44 413.75
  A 0.48 0.48 0.0 0 0 103.97 414.24
  Q 104.14 422.61 103.98 430.80
  Q 103.77 441.38 104.97 446.22
  C 108.83 461.87 122.49 472.69 138.82 472.69
  Q 266.99 472.65 403.24 472.72
  Q 411.50 472.72 415.25 471.97
  C 427.84 469.46 437.80 459.83 441.38 447.58
  Q 442.76 442.87 442.75 431.06
  Q 442.62 250.65 442.72 74.66
  C 442.73 58.21 433.84 44.83 418.35 39.90
  Q 413.69 38.42 401.37 38.41
  Q 274.25 38.37 147.12 38.41
  Q 135.77 38.42 133.41 38.75
  C 119.63 40.68 108.34 51.21 105.09 64.56
  Q 103.69 70.32 103.97 80.75
  Q 104.18 88.64 103.95 96.96
  A 0.41 0.41 0.0 0 0 104.36 97.38
  Q 116.44 97.50 128.83 97.35
  Q 132.27 97.30 134.79 98.17
  C 142.05 100.66 144.41 109.97 139.69 115.88
  Q 136.22 120.23 130.23 120.22
  Q 118.36 120.22 104.61 120.20
  Q 104.02 120.20 104.02 120.79
  L 104.02 194.73
  A 0.50 0.49 90.0 0 0 104.51 195.23
  Q 117.25 195.20 130.97 195.24
  Z"
/>
<path fill="#000000" d="
  M 328.69 196.79
  A 55.39 55.39 0.0 0 1 273.30 252.18
  A 55.39 55.39 0.0 0 1 217.91 196.79
  A 55.39 55.39 0.0 0 1 273.30 141.40
  A 55.39 55.39 0.0 0 1 328.69 196.79
  Z
  M 305.84 196.69
  A 32.54 32.54 0.0 0 0 273.30 164.15
  A 32.54 32.54 0.0 0 0 240.76 196.69
  A 32.54 32.54 0.0 0 0 273.30 229.23
  A 32.54 32.54 0.0 0 0 305.84 196.69
  Z"
/>
<path fill="#000000" d="
  M 199.91 369.81
  A 11.41 11.41 0.0 0 1 188.50 358.40
  L 188.50 356.95
  A 86.30 84.24 -90.0 0 1 272.74 270.65
  L 273.70 270.65
  A 86.30 84.24 -90.0 0 1 357.94 356.95
  L 357.94 358.40
  A 11.41 11.41 0.0 0 1 346.53 369.81
  L 199.91 369.81
  Z
  M 249.41 298.20
  C 229.09 306.74 215.81 325.04 212.35 346.76
  A 0.21 0.20 -85.2 0 0 212.55 347.00
  L 333.97 347.00
  A 0.28 0.27 85.5 0 0 334.24 346.68
  C 331.16 327.80 320.65 310.96 304.07 301.55
  C 287.60 292.21 266.89 290.87 249.41 298.20
  Z"
/>
</svg>
